<?xml version="1.0" encoding="UTF-8" standalone="no"?>
<!-- Created with Inkscape (http://www.inkscape.org/) -->

<svg
   width="139.64888mm"
   height="86.704544mm"
   viewBox="0 0 139.64888 86.704544"
   version="1.1"
   id="svg5"
   xml:space="preserve"
   xmlns="http://www.w3.org/2000/svg"
   xmlns:svg="http://www.w3.org/2000/svg"><defs
     id="defs2" /><g
     id="layer1"
     transform="translate(-36.771294,-189.4965)"><path
       style="fill:#ffffff;stroke:none;stroke-width:0.156433"
       d="m 56.848266,222.06775 c -0.558154,1.00633 -1.574344,2.22776 -1.520687,3.44153 0.143293,3.24958 3.633942,3.30293 5.587949,4.51982 1.243957,0.77466 2.249822,2.17505 3.159168,3.30184 1.784277,2.21071 3.108327,5.05529 5.137891,7.02541 1.461868,1.41885 3.321545,2.41814 4.843327,3.79507 2.204769,1.99483 4.015326,4.39186 6.257326,6.34195 1.523972,1.32531 3.46609,2.12061 4.820645,3.6438 1.650995,1.85655 1.315133,4.20633 2.440514,6.2567 0.632615,1.15276 1.910049,1.39476 2.640591,2.36684 0.77763,1.03433 0.736331,2.60289 1.434649,3.73406 0.634336,1.02714 2.000467,1.65913 2.36809,2.81579 0.71568,2.2517 -0.435671,6.66859 3.19029,6.87634 0.46367,0.0266 0.95252,0.0228 1.4079,-0.0743 3.731401,-0.79609 6.144231,-4.95439 8.916691,-7.25865 4.87555,-4.05225 10.20476,-7.12209 14.52169,-11.9016 3.27368,-3.6244 4.67204,-8.36682 8.31755,-11.71794 1.86829,-1.71732 4.27376,-2.33586 6.72663,-2.62917 1.14916,-0.1375 2.7235,0.15722 3.74751,-0.49182 1.15714,-0.73352 1.58577,-2.81924 2.35948,-3.93305 1.48768,-2.14125 3.57826,-3.93351 5.78193,-5.30856 2.03848,-1.27195 4.34133,-2.354 6.72663,-2.75791 1.3533,-0.22918 3.13476,0.11247 4.37778,-0.43833 1.70731,-0.75651 2.8341,-3.63144 4.2262,-4.93453 1.77473,-1.66116 3.71044,-3.1005 5.78787,-4.36229 1.72389,-1.04716 3.82307,-2.01893 5.10128,-3.63035 1.38694,-1.74861 1.3411,-4.47164 1.042,-6.56956 -0.73867,-5.18123 -3.6269,-9.43824 -6.09541,-13.92255 -0.73774,-1.34017 -1.51193,-2.64513 -2.0815,-4.06727 -0.32085,-0.80109 -0.63903,-1.71138 -1.56449,-1.96574 -1.79116,-0.49261 -4.24325,-0.0679 -6.10074,-0.0679 H 147.1102 c -14.08227,0 -28.16563,-0.15643 -42.23695,-0.15643 -5.218771,0 -10.428461,-0.31287 -15.643319,-0.31287 -1.848258,0 -4.698314,-0.53484 -6.413134,0.1921 -1.520061,0.64451 -1.321235,2.3501 -2.04818,3.55604 -0.601954,0.99898 -2.65686,2.49511 -3.740473,2.91482 -0.889635,0.34462 -1.896126,-0.11623 -2.815797,0.21541 -0.989596,0.35698 -1.644895,1.40774 -2.659364,1.65538 -1.211731,0.29597 -2.21306,-0.21588 -3.441529,0.4341 -1.477824,0.78201 -1.978254,2.1364 -3.157447,3.17231 -0.937504,0.8233 -2.368242,0.67954 -3.412746,1.31388 -1.144309,0.69519 -1.838716,1.98373 -3.128664,2.47978 -0.849119,0.32632 -1.803674,0.26359 -2.659363,0.57911 -1.31576,0.48541 -2.351504,1.39851 -3.754396,1.7228 -1.870784,0.43238 -3.925534,0.34963 -5.428075,1.73594 -1.031207,0.95143 -1.064527,2.56065 -2.239497,3.34172 -1.277589,0.84928 -3.04616,1.36426 -4.534215,1.68291 -0.936002,0.20055 -2.114257,0.24091 -2.681577,1.13492 -0.528932,0.83348 -0.290653,2.17865 -0.290653,3.12178 0,0.72366 -0.164521,1.70122 0.272553,2.32945 0.831959,1.19578 3.761686,0.64279 5.046174,0.64279 4.893543,0 9.800069,0.15643 14.704718,0.15643 m 56.003074,5.47516 5.16229,4.21118 12.67109,10.8064 c -0.8208,1.75909 -2.98568,3.21064 -4.1569,4.84943 -2.10872,2.9508 -3.35799,6.22103 -5.86874,8.91669 -2.32664,2.49777 -4.91013,4.92577 -7.65131,6.96472 -2.15658,1.60391 -4.52592,2.861 -6.57019,4.63621 -2.18256,1.89519 -3.95745,4.53797 -6.41376,6.06569 -0.850531,0.52906 -2.115761,1.24506 -3.126321,0.74259 -2.2226,-1.1052 -0.81752,-4.59491 -1.72311,-6.36151 -0.57974,-1.13085 -1.848725,-1.68228 -2.473988,-2.81814 -0.612906,-1.11349 -0.561126,-2.59022 -1.345951,-3.59499 -0.724442,-0.92749 -1.966522,-1.12867 -2.579896,-2.1932 -1.535079,-2.66358 -0.92937,-5.23613 -3.611885,-7.43605 -1.289479,-1.05733 -2.831754,-1.78725 -4.064916,-2.9156 -2.29378,-2.0987 -4.256703,-4.58114 -6.57254,-6.67281 -1.390534,-1.256 -3.203751,-2.11717 -4.463976,-3.49487 -2.309893,-2.52468 -3.881889,-5.70121 -6.200072,-8.26421 -0.749628,-0.82894 -1.619397,-1.88862 -2.632771,-2.39531 -1.469689,-0.73476 -4.25858,-0.70973 -4.441606,-3.07985 -0.125616,-1.62753 1.993427,-3.53649 3.346574,-4.0133 4.011259,-1.41368 8.433625,-2.0621 12.671087,-2.24403 -0.347908,-1.31717 -1.233789,-1.03402 -2.346498,-0.95252 -1.890182,0.1386 -3.770821,0.36136 -5.631594,0.73351 -2.540787,0.5081 -4.926862,1.51099 -7.508792,1.75675 -6.274847,0.59726 -12.795137,-0.28627 -19.084846,-0.28627 0,-0.97349 -0.414407,-3.17998 0.160782,-3.98686 0.392116,-0.55002 1.581978,-0.53813 2.185716,-0.68971 1.488336,-0.37388 3.249117,-0.90325 4.536405,-1.75409 1.535704,-1.01494 1.454985,-3.06124 3.12882,-3.91959 1.441375,-0.7393 3.168241,-0.58928 4.692995,-1.07391 1.280874,-0.40704 2.338676,-1.27149 3.597963,-1.69996 1.027453,-0.34963 2.180052,-0.20978 3.128663,-0.79765 0.999921,-0.61963 1.620178,-1.71514 2.659364,-2.28205 1.090495,-0.5946 2.440044,-0.58037 3.439183,-1.37833 1.235822,-0.98694 1.686975,-2.61556 3.287443,-3.22425 1.017597,-0.38701 2.115758,0.1289 3.128663,-0.24435 1.034805,-0.38138 1.714195,-1.5163 2.815797,-1.7206 1.211731,-0.22495 2.125144,0.28267 3.285096,-0.47619 1.222525,-0.79968 2.986779,-1.92944 3.753614,-3.18967 0.593508,-0.97567 0.44912,-2.59257 1.723894,-3.00289 1.843095,-0.5932 4.904492,0.0307 6.880712,0.0307 5.83793,0 11.677741,0.31286 17.520511,0.31286 12.77465,0 25.54366,0.15644 38.32613,0.15644 h 13.14039 c 1.95119,0 4.1752,-0.30661 6.09807,-0.0222 0.79156,0.11701 0.91623,0.96394 1.16872,1.58654 0.52686,1.29918 1.25866,2.54595 1.96464,3.7544 2.34916,4.02158 5.10864,8.15345 5.92944,12.82752 0.29206,1.66288 0.45788,3.90645 -0.28721,5.47516 -1.21595,2.5605 -5.13445,3.93914 -7.36487,5.47923 -1.94212,1.34094 -3.7192,2.9278 -5.29151,4.68892 -0.75323,0.84349 -1.39022,2.42503 -2.38827,2.96785 -0.96488,0.52484 -2.78763,0.21573 -3.89628,0.41346 -2.53202,0.45146 -5.02713,1.45013 -7.19592,2.82831 -2.35542,1.49691 -4.43785,3.27993 -6.11732,5.52287 -0.71443,0.95409 -1.28494,3.09973 -2.23527,3.72702 -0.89762,0.59257 -2.64904,0.40923 -3.69277,0.52265 -1.34532,0.1461 -3.04027,0.88994 -4.38012,0.53202 -1.34815,-0.3601 -2.71647,-1.99076 -3.7544,-2.88415 -2.6991,-2.32272 -5.43418,-4.60305 -8.13452,-6.92374 -1.29496,-1.11302 -2.61166,-2.19945 -3.91083,-3.30731 -0.57302,-0.48854 -1.2643,-1.34829 -1.9889,-1.59108 -0.43738,-0.14642 -0.9289,0.186 -1.2962,0.38217 m -15.486881,-7.19593 c -3.47736,0.82409 -6.585996,2.15816 -10.168159,0.7113 -6.285016,-2.53828 -7.746571,-12.28047 -2.033631,-16.23353 3.630188,-2.51185 7.200305,-1.04451 10.95032,0.0354 0.003,-0.96128 0.71709,-3.49785 0.14986,-4.26625 -0.47493,-0.6434 -2.23011,-0.73961 -2.965656,-0.85303 -2.993192,-0.4621 -6.113408,-0.44974 -9.073123,0.25171 -6.783725,1.60782 -11.413521,6.48087 -11.100654,13.62783 0.333359,7.61063 7.883762,12.01156 14.855049,12.04519 2.338676,0.0113 4.586464,-0.12764 6.883064,-0.59444 0.67532,-0.13719 1.92584,-0.25233 2.34211,-0.87884 0.55049,-0.82847 0.16082,-2.86899 0.16082,-3.84529 m 50.371481,4.53657 v -3.91083 c -3.84654,0.51795 -7.78271,1.79444 -11.41963,-0.38765 -5.26413,-3.15854 -6.21415,-12.12091 -0.78216,-15.63924 3.51145,-2.27439 7.34094,-1.2205 10.95032,0.0707 0,-1.05999 0.62401,-3.41431 -0.004,-4.29988 -0.47368,-0.6675 -2.21728,-0.76902 -2.96785,-0.85459 -2.92608,-0.3332 -6.02831,-0.39765 -8.91669,0.2869 -7.92303,1.87782 -14.03878,9.7339 -10.04989,17.85153 0.99788,2.0305 2.37059,3.68102 4.26186,4.9497 2.29769,1.54149 4.95534,2.25655 7.66523,2.62542 3.79319,0.51622 7.52615,-0.21729 11.26319,-0.69206 M 99.242029,200.16717 v 17.83338 4.84942 c 0,0.60024 -0.18365,1.57435 0.0943,2.12218 0.24905,0.49057 1.017441,0.37997 1.470011,0.38075 h 4.06726 c 5.0531,0 12.93796,1.0675 16.50088,-3.44168 3.58498,-4.53719 -0.30629,-9.75236 -5.39413,-10.168 1.63176,-0.86007 3.27712,-1.23942 4.44943,-2.8158 2.28877,-3.07782 0.17693,-6.7989 -3.04153,-7.92412 -5.46264,-1.90974 -12.42564,-0.83613 -18.146251,-0.83613 m 7.978101,10.32458 v -5.16229 c 0,-0.52061 -0.18381,-1.50411 0.16081,-1.9393 0.48087,-0.60712 2.16081,-0.19023 2.81142,-0.1203 3.99436,0.42925 4.86303,6.24653 0.62573,7.0955 -1.16918,0.23433 -2.41079,0.12639 -3.59796,0.12639 m 0,11.57606 v -8.44739 c 1.90739,-0.0394 4.22385,-0.4485 5.9443,0.64654 2.41157,1.53492 2.37419,5.77801 -0.1569,7.18998 -1.6765,0.93515 -3.94228,0.61087 -5.7874,0.61087 z"
       id="path1628" /></g></svg>
